<?xml version="1.0" standalone="no"?>
<!DOCTYPE svg PUBLIC "-//W3C//DTD SVG 20010904//EN"
 "http://www.w3.org/TR/2001/REC-SVG-20010904/DTD/svg10.dtd">
<svg version="1.0" xmlns="http://www.w3.org/2000/svg"
 width="500.000000pt" height="500.000000pt" viewBox="0 0 500.000000 500.000000"
 preserveAspectRatio="xMidYMid meet">
<metadata>
Created by potrace 1.14, written by Peter Selinger 2001-2017
</metadata>
<g transform="translate(0.000000,500.000000) scale(0.100000,-0.100000)"
fill="#000000" stroke="none">
<path d="M3275 4039 c-283 -33 -501 -240 -715 -674 -80 -163 -100 -207 -161
-353 l-34 -82 -115 1 c-63 0 -127 -4 -141 -9 -35 -14 -71 -58 -115 -143 l-37
-69 -205 2 -205 3 -2 50 c-2 67 -17 92 -63 104 -53 13 -372 8 -398 -6 -25 -14
-43 -56 -42 -98 1 -56 2 -55 -69 -55 -85 0 -137 -23 -186 -80 -49 -58 -57 -91
-57 -247 l0 -131 -30 -7 c-17 -4 -44 -23 -63 -46 -27 -31 -42 -40 -78 -44
-164 -20 -324 -84 -406 -162 -29 -26 -59 -47 -68 -45 -10 3 -25 -16 -46 -61
-24 -52 -30 -79 -31 -138 -4 -206 105 -324 357 -389 107 -27 141 -33 299 -45
32 -2 60 -6 62 -8 2 -1 4 -65 5 -141 0 -77 6 -153 11 -170 17 -49 55 -93 106
-123 l47 -28 1285 -1 c1386 -1 1325 -3 1396 51 17 13 43 46 55 72 l24 48 2
480 c1 264 2 487 2 495 1 9 10 16 22 17 35 3 71 33 87 74 20 50 8 47 426 140
80 18 100 19 106 9 11 -17 78 -3 243 51 220 72 353 161 416 278 70 132 32 299
-112 494 -132 179 -335 369 -636 596 -315 238 -564 363 -766 386 -93 10 -110
11 -170 4z m221 -139 c176 -36 374 -143 649 -350 472 -357 712 -628 728 -824
13 -153 -126 -267 -428 -350 -154 -43 -165 -47 -165 -62 0 -8 -2 -14 -4 -14
-2 0 -53 -11 -113 -25 -61 -14 -127 -27 -148 -31 -20 -3 -83 -18 -138 -34
l-101 -28 -34 29 c-18 17 -46 32 -60 35 l-27 6 0 146 c-1 167 -12 204 -82 261
-53 44 -88 51 -258 51 l-150 0 -26 48 c-101 182 -79 172 -393 173 -135 1 -246
3 -246 6 0 10 112 266 157 359 239 496 489 676 839 604z m10 -1269 c25 -12 50
-33 65 -57 22 -37 24 -48 26 -221 1 -101 -1 -183 -5 -183 -4 0 -7 80 -8 178 0
203 -8 229 -79 269 l-38 21 -1273 1 c-1431 1 -1321 7 -1370 -74 -13 -22 -24
-34 -24 -26 0 23 46 77 82 94 30 15 148 17 1308 17 1222 0 1277 -1 1316 -19z
m-2709 -373 c-1 -51 -3 -12 -3 87 0 99 2 141 3 93 2 -48 2 -129 0 -180z m-67
-133 c0 -70 -7 -78 -40 -43 -25 28 -26 62 0 88 33 33 40 24 40 -45z m2970 45
c28 -28 25 -64 -7 -90 -14 -11 -29 -16 -32 -11 -5 7 -6 104 -2 119 3 8 24 -1
41 -18z m-3083 -87 c10 -31 45 -62 79 -73 l34 -12 0 -283 0 -283 -57 3 c-207
10 -385 56 -471 122 -72 54 -97 186 -54 284 13 30 17 50 11 56 -14 14 78 94
143 125 64 31 155 58 217 65 25 3 48 7 50 9 12 11 42 2 48 -13z m216 -1107
c30 -39 50 -50 112 -62 31 -5 36 -4 30 7 -7 11 -6 12 6 3 20 -16 321 -15 312
0 -5 8 -2 7 8 0 9 -8 70 -11 182 -10 93 0 171 -2 174 -7 2 -4 -162 -7 -365 -7
-345 1 -371 2 -408 20 -21 11 -50 36 -64 57 l-25 37 0 545 -1 546 6 -546 5
-546 28 -37z m2765 602 c0 -334 -3 -536 -10 -558 -12 -40 -53 -88 -86 -101
-37 -14 -72 -18 -72 -8 0 5 12 9 27 9 37 0 90 38 110 80 16 32 17 84 18 567 0
293 3 533 6 533 4 0 7 -235 7 -522z m-962 -657 c-3 -5 60 -8 145 -7 83 0 153
-2 156 -6 2 -5 -160 -8 -361 -8 -201 0 -366 3 -366 8 0 4 92 6 205 6 113 -1
208 3 211 7 3 5 7 9 10 9 3 0 3 -4 0 -9z m-920 -14 c4 -4 -5 -7 -19 -7 -15 0
-27 4 -27 8 0 10 36 9 46 -1z m180 0 c4 -3 -32 -6 -80 -5 -47 0 -86 4 -86 7 0
8 157 7 166 -2z m60 0 c4 -4 -5 -7 -19 -7 -15 0 -27 4 -27 8 0 10 36 9 46 -1z
m180 0 c4 -3 -32 -6 -80 -5 -47 0 -86 4 -86 7 0 8 157 7 166 -2z m60 0 c4 -4
-5 -7 -19 -7 -15 0 -27 4 -27 8 0 10 36 9 46 -1z m800 0 c4 -4 -5 -7 -19 -7
-15 0 -27 4 -27 8 0 10 36 9 46 -1z m180 0 c4 -3 -32 -6 -80 -5 -47 0 -86 4
-86 7 0 8 157 7 166 -2z m60 0 c4 -4 -5 -7 -19 -7 -15 0 -27 4 -27 8 0 10 36
9 46 -1z m180 0 c4 -3 -32 -6 -80 -5 -47 0 -86 4 -86 7 0 8 157 7 166 -2z"/>
<path d="M1635 3784 c-14 -15 -25 -31 -25 -37 0 -6 -8 -3 -19 7 -23 20 -84 24
-107 6 -49 -41 63 -190 144 -190 22 0 63 42 86 87 50 100 -12 199 -79 127z"/>
<path d="M154 3708 c-4 -6 -1 -14 6 -18 7 -4 10 -15 7 -23 -4 -11 3 -20 22
-28 16 -7 27 -18 24 -25 -2 -6 24 -30 58 -53 66 -44 69 -50 11 -25 -20 8 -65
18 -99 21 -52 5 -63 3 -63 -10 0 -8 7 -17 15 -21 8 -3 15 -16 15 -30 0 -16 7
-27 20 -31 11 -3 20 -13 20 -21 0 -8 7 -17 15 -20 8 -4 15 -13 15 -20 0 -8 13
-17 29 -20 21 -5 27 -11 24 -24 -4 -13 1 -19 19 -22 15 -2 23 -10 23 -23 0
-13 8 -21 23 -23 15 -2 22 -9 20 -20 -2 -11 5 -18 20 -20 12 -2 22 -10 22 -18
0 -8 7 -14 15 -14 8 0 15 -5 15 -12 0 -6 13 -23 28 -37 16 -14 40 -42 55 -62
l27 -36 -67 -89 c-72 -97 -160 -203 -204 -247 -17 -16 -26 -34 -22 -42 3 -10
9 -12 17 -7 118 93 267 169 401 202 139 36 243 127 278 248 9 28 25 61 35 73
22 22 49 74 81 152 24 57 56 74 199 109 50 12 92 26 92 31 0 4 -3 6 -7 4 -5
-3 -37 -8 -73 -11 -36 -4 -91 -14 -123 -22 -47 -12 -68 -13 -116 -3 -89 19
-137 5 -178 -51 -18 -25 -44 -58 -58 -73 l-24 -29 -97 97 c-120 118 -234 204
-339 255 -80 39 -169 57 -181 38z m851 -308 c0 -8 -8 -16 -17 -18 -13 -2 -18
3 -18 18 0 15 5 20 18 18 9 -2 17 -10 17 -18z"/>
<path d="M2126 3687 l-31 -33 -25 23 c-35 33 -90 35 -122 6 -46 -42 36 -189
127 -229 25 -11 34 -10 55 3 56 35 108 107 115 157 12 98 -56 140 -119 73z"/>
<path d="M1765 3358 c-26 -11 -60 -65 -70 -106 -7 -36 -8 -36 -35 -22 -30 16
-95 18 -128 5 -64 -28 -78 -94 -31 -153 48 -61 164 -123 255 -135 36 -5 45 -2
66 21 63 67 98 190 79 275 -20 86 -83 139 -136 115z"/>
</g>
</svg>
