<svg xmlns="http://www.w3.org/2000/svg" xmlns:xlink="http://www.w3.org/1999/xlink" width="500" zoomAndPan="magnify" viewBox="0 0 375 374.999991" height="500" preserveAspectRatio="xMidYMid meet" version="1.0"><defs><g/><clipPath id="b4be1f886f"><path d="M 0 14.039062 L 375 14.039062 L 375 254.039062 L 0 254.039062 Z M 0 14.039062 " clip-rule="nonzero"/></clipPath></defs><path fill="#de335e" d="M 131.378906 221.511719 L 131.378906 248.648438 L 197.691406 248.648438 L 197.691406 221.511719 C 196.601562 222.589844 195.460938 223.613281 194.269531 224.578125 C 193.082031 225.546875 191.847656 226.453125 190.566406 227.300781 C 189.289062 228.148438 187.972656 228.929688 186.617188 229.648438 C 185.261719 230.367188 183.878906 231.015625 182.457031 231.597656 C 181.039062 232.183594 179.597656 232.695312 178.128906 233.136719 C 176.660156 233.578125 175.175781 233.949219 173.671875 234.246094 C 172.164062 234.542969 170.652344 234.765625 169.125 234.914062 C 167.597656 235.066406 166.070312 235.140625 164.535156 235.140625 C 163 235.140625 161.472656 235.066406 159.945312 234.914062 C 158.417969 234.765625 156.90625 234.542969 155.398438 234.246094 C 153.894531 233.949219 152.410156 233.578125 150.941406 233.136719 C 149.472656 232.695312 148.03125 232.183594 146.609375 231.597656 C 145.191406 231.015625 143.804688 230.367188 142.453125 229.648438 C 141.097656 228.929688 139.78125 228.148438 138.5 227.300781 C 137.222656 226.453125 135.988281 225.546875 134.800781 224.578125 C 133.609375 223.613281 132.46875 222.589844 131.378906 221.511719 Z M 131.378906 221.511719 " fill-opacity="1" fill-rule="evenodd"/><path fill="#de335e" d="M 131.378906 119.351562 L 131.378906 154.441406 C 132.46875 153.363281 133.609375 152.339844 134.800781 151.375 C 135.992188 150.40625 137.226562 149.5 138.503906 148.65625 C 139.78125 147.808594 141.097656 147.027344 142.453125 146.308594 C 143.808594 145.59375 145.195312 144.941406 146.613281 144.359375 C 148.03125 143.777344 149.476562 143.265625 150.941406 142.824219 C 152.410156 142.382812 153.898438 142.011719 155.402344 141.714844 C 156.90625 141.417969 158.421875 141.195312 159.945312 141.046875 C 161.472656 140.898438 163 140.824219 164.535156 140.824219 C 166.066406 140.824219 167.597656 140.898438 169.125 141.046875 C 170.648438 141.195312 172.164062 141.417969 173.667969 141.714844 C 175.171875 142.011719 176.660156 142.382812 178.128906 142.824219 C 179.59375 143.265625 181.039062 143.777344 182.457031 144.359375 C 183.875 144.941406 185.261719 145.59375 186.617188 146.308594 C 187.972656 147.027344 189.289062 147.808594 190.566406 148.65625 C 191.84375 149.5 193.078125 150.40625 194.269531 151.375 C 195.460938 152.339844 196.601562 153.363281 197.691406 154.441406 L 197.691406 119.351562 Z M 131.378906 119.351562 " fill-opacity="1" fill-rule="evenodd"/><path fill="#de335e" d="M 135.183594 96.238281 C 138.054688 94.347656 141.175781 88.792969 142.574219 82.722656 C 146.421875 66.003906 129.636719 55.980469 126.703125 76.070312 C 117.050781 69.792969 103.648438 77.625 114.09375 87.949219 C 120.125 93.917969 132.128906 97.609375 135.183594 96.238281 Z M 135.183594 96.238281 " fill-opacity="1" fill-rule="evenodd"/><path fill="#de335e" d="M 157.4375 58.964844 C 159.816406 58.492188 163.351562 55.707031 165.890625 52.066406 C 172.882812 42.164062 164.585938 31.117188 157.265625 43.441406 C 152.632812 36.746094 141.738281 38.265625 145.828125 47.832031 C 148.199219 53.421875 155.0625 59.054688 157.4375 58.964844 Z M 157.4375 58.964844 " fill-opacity="1" fill-rule="evenodd"/><path fill="#de335e" d="M 122.332031 49.710938 C 124.273438 49.054688 126.921875 46.339844 128.664062 43.042969 C 133.433594 33.996094 125.296875 25.65625 120.527344 36.78125 C 115.921875 31.683594 106.996094 34.144531 111.429688 41.699219 C 114 46.0625 120.355469 50.03125 122.332031 49.710938 Z M 122.332031 49.710938 " fill-opacity="1" fill-rule="evenodd"/><path fill="#f5ac37" d="M 131.378906 221.511719 L 131.378906 248.648438 L 97.195312 248.648438 L 97.195312 119.351562 L 131.378906 119.351562 L 131.378906 154.441406 L 131.191406 154.628906 C 130.097656 155.722656 129.0625 156.867188 128.082031 158.058594 C 127.101562 159.253906 126.179688 160.492188 125.324219 161.777344 C 124.464844 163.0625 123.671875 164.382812 122.941406 165.746094 C 122.214844 167.109375 121.554688 168.503906 120.964844 169.929688 C 120.371094 171.359375 119.851562 172.808594 119.402344 174.289062 C 118.953125 175.765625 118.578125 177.261719 118.277344 178.777344 C 117.976562 180.292969 117.75 181.820312 117.597656 183.355469 C 117.449219 184.894531 117.371094 186.433594 117.371094 187.980469 C 117.371094 189.523438 117.449219 191.066406 117.597656 192.601562 C 117.75 194.140625 117.976562 195.667969 118.277344 197.183594 C 118.578125 198.695312 118.953125 200.195312 119.402344 201.671875 C 119.851562 203.148438 120.371094 204.601562 120.964844 206.03125 C 121.554688 207.457031 122.214844 208.851562 122.941406 210.214844 C 123.671875 211.574219 124.464844 212.898438 125.324219 214.183594 C 126.179688 215.46875 127.101562 216.707031 128.082031 217.902344 C 129.0625 219.09375 130.097656 220.238281 131.191406 221.328125 Z M 131.378906 221.511719 " fill-opacity="1" fill-rule="evenodd"/><path fill="#f5ac37" d="M 97.195312 157.054688 L 97.195312 119.351562 L 131.378906 119.351562 L 131.378906 154.441406 L 131.191406 154.628906 C 130.40625 155.414062 129.644531 156.226562 128.921875 157.054688 Z M 97.195312 157.054688 " fill-opacity="1" fill-rule="evenodd"/><path fill="#f9e70f" d="M 73.261719 119.351562 L 97.195312 119.351562 L 97.195312 248.628906 L 73.261719 248.628906 Z M 73.261719 119.351562 " fill-opacity="1" fill-rule="nonzero"/><path fill="#ffee5f" d="M 73.261719 119.351562 L 97.195312 119.351562 L 97.195312 157.0625 L 73.261719 157.0625 Z M 73.261719 119.351562 " fill-opacity="1" fill-rule="nonzero"/><path fill="#89c8b7" d="M 73.261719 119.351562 L 73.261719 248.648438 L 71.535156 248.648438 C 70.792969 248.644531 70.058594 248.570312 69.328125 248.421875 C 68.597656 248.277344 67.890625 248.058594 67.203125 247.773438 C 66.519531 247.488281 65.867188 247.140625 65.25 246.726562 C 64.628906 246.3125 64.058594 245.84375 63.53125 245.316406 C 63.007812 244.792969 62.539062 244.21875 62.125 243.601562 C 61.710938 242.984375 61.359375 242.332031 61.074219 241.644531 C 60.789062 240.957031 60.574219 240.25 60.425781 239.523438 C 60.28125 238.792969 60.207031 238.054688 60.203125 237.3125 L 60.203125 130.679688 C 60.207031 129.933594 60.28125 129.195312 60.425781 128.46875 C 60.574219 127.738281 60.789062 127.03125 61.078125 126.34375 C 61.363281 125.65625 61.714844 125.003906 62.128906 124.386719 C 62.542969 123.769531 63.011719 123.195312 63.539062 122.671875 C 64.066406 122.144531 64.640625 121.675781 65.257812 121.261719 C 65.875 120.851562 66.53125 120.5 67.21875 120.214844 C 67.90625 119.933594 68.613281 119.71875 69.34375 119.570312 C 70.074219 119.425781 70.808594 119.351562 71.554688 119.351562 Z M 73.261719 119.351562 " fill-opacity="1" fill-rule="evenodd"/><path fill="#c8e5df" d="M 67.035156 247.679688 C 66.027344 247.242188 65.101562 246.664062 64.261719 245.957031 C 63.417969 245.25 62.695312 244.433594 62.089844 243.515625 C 61.488281 242.597656 61.023438 241.613281 60.707031 240.558594 C 60.386719 239.507812 60.226562 238.429688 60.21875 237.328125 L 60.21875 130.679688 C 60.226562 129.578125 60.390625 128.5 60.707031 127.449219 C 61.027344 126.398438 61.488281 125.410156 62.09375 124.492188 C 62.699219 123.574219 63.421875 122.761719 64.261719 122.050781 C 65.101562 121.34375 66.027344 120.769531 67.035156 120.328125 Z M 67.035156 247.679688 " fill-opacity="1" fill-rule="evenodd"/><path fill="#c8e5e1" d="M 73.261719 119.351562 L 73.261719 157.054688 L 60.21875 157.054688 L 60.21875 130.679688 C 60.222656 129.933594 60.296875 129.199219 60.445312 128.46875 C 60.589844 127.742188 60.808594 127.035156 61.09375 126.347656 C 61.378906 125.660156 61.726562 125.007812 62.140625 124.390625 C 62.554688 123.773438 63.023438 123.203125 63.550781 122.675781 C 64.078125 122.152344 64.648438 121.683594 65.265625 121.269531 C 65.882812 120.855469 66.535156 120.507812 67.222656 120.222656 C 67.910156 119.9375 68.617188 119.722656 69.34375 119.574219 C 70.074219 119.429688 70.8125 119.355469 71.554688 119.351562 Z M 73.261719 119.351562 " fill-opacity="1" fill-rule="evenodd"/><path fill="#e3f2f1" d="M 67.035156 157.054688 L 60.21875 157.054688 L 60.21875 130.679688 C 60.226562 129.578125 60.390625 128.5 60.707031 127.449219 C 61.027344 126.398438 61.488281 125.410156 62.09375 124.492188 C 62.699219 123.574219 63.421875 122.761719 64.261719 122.050781 C 65.101562 121.34375 66.027344 120.769531 67.035156 120.328125 Z M 67.035156 157.054688 " fill-opacity="1" fill-rule="evenodd"/><path fill="#ffffff" d="M 164.535156 237.667969 C 166.164062 237.667969 167.785156 237.585938 169.40625 237.425781 C 171.023438 237.265625 172.632812 237.027344 174.230469 236.710938 C 175.824219 236.390625 177.402344 235.996094 178.957031 235.523438 C 180.515625 235.050781 182.046875 234.503906 183.550781 233.882812 C 185.054688 233.257812 186.523438 232.5625 187.957031 231.796875 C 189.390625 231.027344 190.785156 230.191406 192.140625 229.289062 C 193.492188 228.382812 194.796875 227.414062 196.054688 226.382812 C 197.3125 225.351562 198.515625 224.257812 199.667969 223.105469 C 200.820312 221.957031 201.910156 220.75 202.941406 219.492188 C 203.972656 218.234375 204.941406 216.929688 205.847656 215.578125 C 206.75 214.222656 207.585938 212.828125 208.351562 211.394531 C 209.121094 209.957031 209.8125 208.488281 210.4375 206.984375 C 211.058594 205.480469 211.605469 203.953125 212.078125 202.394531 C 212.550781 200.835938 212.945312 199.261719 213.261719 197.664062 C 213.582031 196.066406 213.820312 194.460938 213.976562 192.839844 C 214.136719 191.222656 214.21875 189.597656 214.21875 187.96875 C 214.21875 186.34375 214.136719 184.71875 213.976562 183.101562 C 213.816406 181.480469 213.578125 179.871094 213.261719 178.277344 C 212.945312 176.679688 212.546875 175.105469 212.074219 173.546875 C 211.601562 171.988281 211.054688 170.457031 210.433594 168.957031 C 209.808594 167.453125 209.113281 165.984375 208.347656 164.546875 C 207.578125 163.113281 206.746094 161.71875 205.839844 160.367188 C 204.9375 159.011719 203.96875 157.707031 202.933594 156.449219 C 201.902344 155.191406 200.8125 153.988281 199.660156 152.835938 C 198.507812 151.6875 197.304688 150.59375 196.046875 149.5625 C 194.789062 148.53125 193.484375 147.5625 192.128906 146.65625 C 190.777344 145.753906 189.382812 144.917969 187.945312 144.152344 C 186.511719 143.382812 185.042969 142.6875 183.539062 142.066406 C 182.035156 141.445312 180.503906 140.894531 178.949219 140.425781 C 177.390625 139.953125 175.8125 139.558594 174.21875 139.238281 C 172.621094 138.921875 171.011719 138.683594 169.394531 138.523438 C 167.773438 138.363281 166.152344 138.285156 164.523438 138.285156 C 162.894531 138.285156 161.273438 138.367188 159.652344 138.523438 C 158.035156 138.683594 156.425781 138.921875 154.828125 139.242188 C 153.234375 139.558594 151.65625 139.953125 150.101562 140.425781 C 148.542969 140.898438 147.011719 141.445312 145.507812 142.070312 C 144.003906 142.691406 142.535156 143.386719 141.101562 144.152344 C 139.664062 144.921875 138.269531 145.757812 136.917969 146.660156 C 135.566406 147.566406 134.257812 148.53125 133 149.566406 C 131.742188 150.597656 130.539062 151.691406 129.390625 152.839844 C 128.238281 153.992188 127.148438 155.195312 126.113281 156.453125 C 125.082031 157.710938 124.113281 159.015625 123.210938 160.371094 C 122.304688 161.722656 121.46875 163.117188 120.703125 164.550781 C 119.9375 165.988281 119.242188 167.457031 118.617188 168.960938 C 117.996094 170.464844 117.449219 171.996094 116.976562 173.550781 C 116.503906 175.109375 116.109375 176.6875 115.789062 178.28125 C 115.472656 179.878906 115.234375 181.484375 115.074219 183.105469 C 114.914062 184.726562 114.835938 186.347656 114.835938 187.976562 C 114.839844 189.601562 114.921875 191.226562 115.082031 192.84375 C 115.246094 194.460938 115.488281 196.070312 115.804688 197.664062 C 116.125 199.257812 116.523438 200.835938 116.996094 202.390625 C 117.472656 203.949219 118.019531 205.476562 118.644531 206.980469 C 119.269531 208.480469 119.964844 209.949219 120.730469 211.382812 C 121.5 212.816406 122.335938 214.210938 123.242188 215.5625 C 124.144531 216.914062 125.113281 218.21875 126.144531 219.476562 C 127.179688 220.734375 128.269531 221.9375 129.421875 223.085938 C 130.570312 224.238281 131.773438 225.328125 133.03125 226.363281 C 134.289062 227.394531 135.59375 228.363281 136.945312 229.265625 C 138.300781 230.171875 139.691406 231.007812 141.125 231.773438 C 142.5625 232.542969 144.027344 233.238281 145.53125 233.859375 C 147.035156 234.484375 148.5625 235.035156 150.121094 235.507812 C 151.675781 235.980469 153.25 236.378906 154.847656 236.699219 C 156.441406 237.015625 158.046875 237.257812 159.667969 237.417969 C 161.285156 237.582031 162.910156 237.664062 164.535156 237.667969 Z M 164.535156 237.667969 " fill-opacity="1" fill-rule="evenodd"/><path fill="#203344" d="M 190.472656 162.039062 C 191.324219 162.886719 192.128906 163.777344 192.890625 164.707031 C 193.652344 165.632812 194.367188 166.597656 195.035156 167.597656 C 195.703125 168.59375 196.320312 169.625 196.886719 170.683594 C 197.453125 171.742188 197.964844 172.828125 198.425781 173.9375 C 198.886719 175.046875 199.289062 176.179688 199.636719 177.328125 C 199.988281 178.476562 200.277344 179.640625 200.511719 180.820312 C 200.746094 182 200.921875 183.1875 201.039062 184.382812 C 201.160156 185.578125 201.21875 186.777344 201.21875 187.976562 C 201.21875 189.179688 201.160156 190.378906 201.039062 191.574219 C 200.921875 192.769531 200.746094 193.957031 200.511719 195.132812 C 200.277344 196.3125 199.988281 197.476562 199.636719 198.625 C 199.289062 199.773438 198.886719 200.90625 198.425781 202.015625 C 197.964844 203.125 197.453125 204.210938 196.886719 205.269531 C 196.320312 206.328125 195.703125 207.359375 195.035156 208.355469 C 194.367188 209.355469 193.652344 210.320312 192.890625 211.25 C 192.128906 212.175781 191.324219 213.066406 190.472656 213.917969 C 189.625 214.765625 188.734375 215.570312 187.804688 216.332031 C 186.878906 217.097656 185.914062 217.8125 184.914062 218.476562 C 183.914062 219.144531 182.886719 219.761719 181.828125 220.328125 C 180.765625 220.894531 179.683594 221.410156 178.570312 221.867188 C 177.460938 222.328125 176.332031 222.730469 175.183594 223.082031 C 174.03125 223.429688 172.867188 223.722656 171.691406 223.957031 C 170.511719 224.191406 169.324219 224.367188 168.128906 224.484375 C 166.933594 224.601562 165.734375 224.660156 164.535156 224.660156 C 163.332031 224.660156 162.132812 224.601562 160.9375 224.484375 C 159.742188 224.367188 158.554688 224.191406 157.378906 223.957031 C 156.199219 223.722656 155.035156 223.429688 153.886719 223.082031 C 152.734375 222.730469 151.605469 222.328125 150.496094 221.867188 C 149.386719 221.410156 148.300781 220.894531 147.242188 220.328125 C 146.183594 219.761719 145.152344 219.144531 144.152344 218.476562 C 143.15625 217.8125 142.191406 217.097656 141.261719 216.332031 C 140.332031 215.570312 139.445312 214.765625 138.59375 213.917969 C 137.746094 213.066406 136.941406 212.175781 136.175781 211.25 C 135.414062 210.320312 134.699219 209.355469 134.03125 208.355469 C 133.367188 207.359375 132.75 206.328125 132.183594 205.269531 C 131.617188 204.210938 131.101562 203.125 130.644531 202.015625 C 130.183594 200.90625 129.777344 199.773438 129.429688 198.625 C 129.082031 197.476562 128.789062 196.3125 128.554688 195.132812 C 128.320312 193.957031 128.144531 192.769531 128.027344 191.574219 C 127.910156 190.378906 127.851562 189.179688 127.851562 187.976562 C 127.851562 186.777344 127.910156 185.578125 128.027344 184.382812 C 128.144531 183.1875 128.320312 182 128.554688 180.820312 C 128.789062 179.640625 129.082031 178.476562 129.429688 177.328125 C 129.777344 176.179688 130.183594 175.046875 130.644531 173.9375 C 131.101562 172.828125 131.617188 171.742188 132.183594 170.683594 C 132.75 169.625 133.367188 168.59375 134.03125 167.597656 C 134.699219 166.597656 135.414062 165.632812 136.175781 164.707031 C 136.941406 163.777344 137.746094 162.886719 138.59375 162.039062 C 139.445312 161.1875 140.332031 160.382812 141.261719 159.621094 C 142.191406 158.859375 143.15625 158.144531 144.152344 157.476562 C 145.152344 156.808594 146.183594 156.191406 147.242188 155.625 C 148.300781 155.058594 149.386719 154.546875 150.496094 154.085938 C 151.605469 153.625 152.734375 153.222656 153.886719 152.875 C 155.035156 152.523438 156.199219 152.234375 157.378906 152 C 158.554688 151.765625 159.742188 151.585938 160.9375 151.46875 C 162.132812 151.351562 163.332031 151.292969 164.535156 151.292969 C 165.734375 151.292969 166.933594 151.351562 168.128906 151.46875 C 169.324219 151.585938 170.511719 151.765625 171.691406 152 C 172.867188 152.234375 174.03125 152.523438 175.183594 152.875 C 176.332031 153.222656 177.460938 153.625 178.570312 154.085938 C 179.683594 154.546875 180.765625 155.058594 181.828125 155.625 C 182.886719 156.191406 183.914062 156.808594 184.914062 157.476562 C 185.914062 158.144531 186.878906 158.859375 187.804688 159.621094 C 188.734375 160.382812 189.625 161.1875 190.472656 162.039062 Z M 190.472656 162.039062 " fill-opacity="1" fill-rule="nonzero"/><path fill="#ffffff" d="M 245.191406 132.050781 L 221.339844 132.050781 L 220.902344 132.496094 L 221.023438 144.226562 L 221.339844 144.367188 L 245.191406 144.367188 L 245.640625 143.910156 L 245.519531 132.179688 Z M 245.191406 132.050781 " fill-opacity="1" fill-rule="evenodd"/><path fill="#89c8b7" d="M 199.917969 156.8125 C 200.894531 157.925781 201.820312 159.078125 202.691406 160.277344 C 203.5625 161.476562 204.375 162.714844 205.128906 163.992188 C 205.886719 165.265625 206.578125 166.574219 207.207031 167.917969 C 207.839844 169.257812 208.40625 170.625 208.90625 172.019531 C 209.410156 173.414062 209.84375 174.828125 210.214844 176.265625 C 210.582031 177.699219 210.882812 179.148438 211.113281 180.613281 C 211.347656 182.078125 211.507812 183.546875 211.601562 185.027344 C 211.695312 186.507812 211.71875 187.988281 211.671875 189.46875 C 211.625 190.949219 211.507812 192.425781 211.324219 193.894531 C 211.136719 195.367188 210.882812 196.824219 210.558594 198.269531 C 210.234375 199.71875 209.84375 201.144531 209.386719 202.554688 C 208.929688 203.964844 208.40625 205.347656 207.816406 206.710938 C 207.230469 208.070312 206.578125 209.398438 205.863281 210.699219 C 205.152344 211.996094 204.378906 213.257812 203.542969 214.484375 C 202.710938 215.710938 201.824219 216.894531 200.878906 218.035156 C 199.933594 219.179688 198.9375 220.273438 197.890625 221.320312 L 197.699219 221.511719 L 197.699219 248.648438 L 257.523438 248.648438 C 258.269531 248.644531 259.003906 248.570312 259.734375 248.425781 C 260.464844 248.277344 261.171875 248.0625 261.859375 247.777344 C 262.542969 247.492188 263.195312 247.140625 263.816406 246.726562 C 264.433594 246.316406 265.003906 245.84375 265.53125 245.320312 C 266.058594 244.792969 266.527344 244.222656 266.941406 243.601562 C 267.355469 242.984375 267.703125 242.332031 267.988281 241.644531 C 268.273438 240.960938 268.488281 240.25 268.636719 239.523438 C 268.78125 238.792969 268.855469 238.054688 268.859375 237.3125 L 268.859375 157.097656 L 200.140625 157.097656 C 200.070312 156.976562 199.984375 156.898438 199.917969 156.8125 Z M 199.917969 156.8125 " fill-opacity="1" fill-rule="nonzero"/><path fill="#89c8b7" d="M 197.691406 119.351562 L 197.691406 154.441406 L 197.820312 154.570312 L 197.691406 154.441406 Z M 197.691406 119.351562 " fill-opacity="1" fill-rule="nonzero"/><path fill="#89c8b7" d="M 228.164062 106.683594 L 231.535156 112.625 Z M 228.164062 106.683594 " fill-opacity="1" fill-rule="nonzero"/><path fill="#b5ddd6" d="M 268.851562 130.679688 C 268.847656 129.933594 268.773438 129.199219 268.625 128.46875 C 268.480469 127.742188 268.261719 127.035156 267.976562 126.347656 C 267.691406 125.660156 267.34375 125.007812 266.929688 124.390625 C 266.515625 123.773438 266.046875 123.203125 265.519531 122.675781 C 264.992188 122.152344 264.421875 121.683594 263.804688 121.269531 C 263.1875 120.855469 262.535156 120.507812 261.847656 120.222656 C 261.160156 119.9375 260.453125 119.722656 259.722656 119.574219 C 258.996094 119.429688 258.257812 119.355469 257.515625 119.351562 L 197.691406 119.351562 L 197.691406 154.441406 L 197.878906 154.628906 C 198.578125 155.335938 199.253906 156.070312 199.917969 156.8125 C 199.984375 156.898438 200.070312 156.976562 200.140625 157.054688 L 268.851562 157.054688 Z M 268.851562 130.679688 " fill-opacity="1" fill-rule="nonzero"/><path fill="#b5ddd6" d="M 232.175781 113.753906 L 231.527344 112.625 L 228.15625 106.683594 L 227.050781 104.742188 C 226.519531 103.808594 225.78125 103.089844 224.835938 102.585938 C 223.730469 102.023438 222.5625 101.75 221.324219 101.773438 L 162.671875 101.773438 C 161.433594 101.75 160.265625 102.019531 159.160156 102.585938 C 158.214844 103.089844 157.476562 103.808594 156.945312 104.742188 L 151.820312 113.753906 Z M 232.175781 113.753906 " fill-opacity="1" fill-rule="nonzero"/><path fill="#f9cb81" d="M 111.453125 113.9375 L 111.453125 107.96875 C 111.453125 107.707031 111.40625 107.457031 111.304688 107.21875 C 111.207031 106.976562 111.066406 106.765625 110.882812 106.582031 C 110.699219 106.398438 110.484375 106.257812 110.246094 106.160156 C 110.007812 106.058594 109.757812 106.007812 109.496094 106.007812 L 84.636719 106.007812 C 84.101562 106.007812 83.640625 106.199219 83.257812 106.578125 C 82.878906 106.964844 82.683594 107.425781 82.679688 107.96875 L 82.679688 113.9375 Z M 111.453125 113.9375 " fill-opacity="1" fill-rule="evenodd"/><path fill="#f5ac37" d="M 111.453125 113.9375 L 111.453125 107.96875 C 111.453125 107.691406 111.398438 107.425781 111.289062 107.171875 C 111.117188 107.121094 110.9375 107.097656 110.757812 107.097656 L 85.898438 107.097656 C 85.640625 107.097656 85.390625 107.148438 85.152344 107.25 C 84.914062 107.351562 84.703125 107.492188 84.519531 107.675781 C 84.335938 107.859375 84.195312 108.070312 84.09375 108.308594 C 83.992188 108.546875 83.941406 108.796875 83.941406 109.054688 L 83.941406 113.9375 Z M 111.453125 113.9375 " fill-opacity="1" fill-rule="evenodd"/><path fill="#c62855" d="M 197.691406 147.730469 L 197.691406 141.605469 C 193.929688 139.722656 190 138.296875 185.90625 137.332031 C 181.8125 136.367188 177.660156 135.890625 173.453125 135.894531 C 172.039062 135.894531 170.640625 135.949219 169.253906 136.050781 C 174.472656 136.519531 179.507812 137.75 184.355469 139.742188 C 189.203125 141.730469 193.648438 144.394531 197.691406 147.730469 Z M 197.691406 147.730469 " fill-opacity="1" fill-rule="evenodd"/><path fill="#c62855" d="M 197.691406 228.257812 C 195.933594 229.699219 194.09375 231.023438 192.164062 232.226562 C 190.238281 233.429688 188.238281 234.5 186.171875 235.441406 C 184.101562 236.386719 181.980469 237.1875 179.808594 237.855469 C 177.632812 238.519531 175.425781 239.039062 173.1875 239.417969 C 170.945312 239.792969 168.6875 240.023438 166.417969 240.105469 C 164.144531 240.1875 161.878906 240.121094 159.617188 239.90625 C 157.351562 239.691406 155.113281 239.332031 152.898438 238.828125 C 150.683594 238.320312 148.507812 237.671875 146.378906 236.882812 C 148.3125 237.996094 150.304688 238.988281 152.359375 239.859375 C 154.414062 240.726562 156.515625 241.464844 158.660156 242.074219 C 160.808594 242.683594 162.984375 243.160156 165.1875 243.5 C 167.394531 243.839844 169.609375 244.042969 171.839844 244.113281 C 174.070312 244.179688 176.296875 244.109375 178.519531 243.898438 C 180.738281 243.691406 182.941406 243.347656 185.121094 242.867188 C 187.296875 242.386719 189.4375 241.773438 191.542969 241.03125 C 193.644531 240.285156 195.695312 239.414062 197.691406 238.417969 Z M 197.691406 228.257812 " fill-opacity="1" fill-rule="evenodd"/><path fill="#ffffff" d="M 205.601562 159.996094 C 206.625 161.5 207.570312 163.054688 208.429688 164.660156 L 205.601562 164.660156 Z M 205.601562 159.996094 " fill-opacity="1" fill-rule="evenodd"/><path fill="#79b1a3" d="M 204.789062 154.820312 L 214.597656 154.820312 C 209.84375 149.269531 204.203125 144.851562 197.671875 141.570312 L 197.671875 147.730469 C 198.96875 148.800781 200.21875 149.9375 201.410156 151.121094 C 202.597656 152.300781 203.738281 153.519531 204.789062 154.820312 Z M 204.789062 154.820312 " fill-opacity="1" fill-rule="evenodd"/><path fill="#79b1a3" d="M 268.851562 164.660156 L 268.851562 159.296875 L 205.601562 159.296875 L 205.601562 164.660156 L 211.207031 164.660156 C 211.8125 165.875 212.371094 167.113281 212.882812 168.371094 C 213.390625 169.628906 213.851562 170.90625 214.261719 172.199219 C 214.671875 173.496094 215.03125 174.804688 215.339844 176.125 C 215.648438 177.449219 215.902344 178.78125 216.109375 180.121094 C 216.3125 181.464844 216.464844 182.8125 216.5625 184.167969 C 216.660156 185.519531 216.707031 186.878906 216.699219 188.234375 C 216.695312 189.59375 216.632812 190.949219 216.523438 192.300781 C 216.410156 193.65625 216.242188 195 216.027344 196.339844 C 215.808594 197.683594 215.539062 199.011719 215.21875 200.332031 C 214.894531 201.648438 214.523438 202.953125 214.101562 204.246094 C 213.675781 205.535156 213.203125 206.804688 212.679688 208.058594 C 212.160156 209.3125 211.585938 210.542969 210.96875 211.753906 C 210.351562 212.960938 209.6875 214.144531 208.976562 215.300781 C 208.265625 216.457031 207.507812 217.585938 206.710938 218.683594 C 205.910156 219.78125 205.070312 220.84375 204.1875 221.878906 C 203.304688 222.910156 202.386719 223.90625 201.425781 224.867188 C 200.234375 226.058594 198.984375 227.1875 197.691406 228.257812 L 197.691406 238.433594 C 199.300781 237.628906 200.863281 236.746094 202.386719 235.78125 C 203.90625 234.820312 205.375 233.785156 206.792969 232.675781 C 208.210938 231.570312 209.570312 230.394531 210.871094 229.148438 C 212.171875 227.90625 213.40625 226.601562 214.578125 225.234375 C 215.746094 223.867188 216.847656 222.445312 217.875 220.96875 C 218.90625 219.492188 219.859375 217.96875 220.734375 216.398438 C 221.613281 214.828125 222.410156 213.214844 223.125 211.566406 C 223.839844 209.914062 224.472656 208.230469 225.023438 206.519531 C 225.570312 204.804688 226.035156 203.066406 226.410156 201.308594 C 226.785156 199.546875 227.074219 197.773438 227.273438 195.984375 C 227.46875 194.195312 227.582031 192.402344 227.601562 190.601562 C 227.621094 188.804688 227.550781 187.007812 227.390625 185.214844 C 227.234375 183.421875 226.988281 181.644531 226.648438 179.875 C 226.3125 178.109375 225.890625 176.359375 225.378906 174.636719 C 224.871094 172.910156 224.277344 171.214844 223.597656 169.546875 C 222.917969 167.878906 222.15625 166.253906 221.316406 164.660156 Z M 268.851562 164.660156 " fill-opacity="1" fill-rule="evenodd"/><g clip-path="url(#b4be1f886f)"><path fill="#203344" d="M 308.8125 38.300781 C 257.222656 0.660156 227.691406 11.011719 205.980469 40.777344 C 194.929688 55.929688 186.191406 76.070312 177.515625 97.304688 L 162.699219 97.304688 C 160.714844 97.289062 158.847656 97.738281 157.089844 98.660156 C 155.375 99.5625 154.039062 100.859375 153.089844 102.550781 L 146.613281 113.945312 L 115.949219 113.945312 L 115.949219 107.96875 C 115.949219 107.542969 115.90625 107.125 115.824219 106.710938 C 115.742188 106.296875 115.617188 105.894531 115.457031 105.503906 C 115.292969 105.113281 115.09375 104.742188 114.859375 104.390625 C 114.625 104.039062 114.359375 103.710938 114.058594 103.414062 C 113.761719 103.113281 113.433594 102.847656 113.082031 102.613281 C 112.730469 102.378906 112.359375 102.179688 111.96875 102.015625 C 111.578125 101.855469 111.175781 101.730469 110.761719 101.648438 C 110.347656 101.566406 109.929688 101.523438 109.503906 101.523438 L 84.636719 101.523438 C 84.214844 101.523438 83.796875 101.566406 83.382812 101.652344 C 82.96875 101.734375 82.566406 101.855469 82.175781 102.019531 C 81.785156 102.183594 81.417969 102.378906 81.066406 102.617188 C 80.714844 102.851562 80.390625 103.117188 80.089844 103.417969 C 79.792969 103.714844 79.527344 104.039062 79.289062 104.390625 C 79.054688 104.742188 78.859375 105.113281 78.695312 105.503906 C 78.535156 105.894531 78.410156 106.296875 78.328125 106.710938 C 78.246094 107.125 78.203125 107.542969 78.203125 107.96875 L 78.203125 113.9375 L 71.554688 113.9375 C 69.335938 113.9375 67.199219 114.367188 65.152344 115.21875 C 63.101562 116.070312 61.296875 117.28125 59.730469 118.851562 C 58.15625 120.417969 56.945312 122.222656 56.09375 124.273438 C 55.242188 126.320312 54.816406 128.453125 54.8125 130.667969 L 54.8125 148.488281 C 53.8125 148.5 52.84375 148.664062 51.898438 148.988281 C 50.953125 149.308594 50.082031 149.769531 49.285156 150.371094 C 48.488281 150.972656 47.804688 151.683594 47.238281 152.507812 C 46.671875 153.328125 46.246094 154.214844 45.960938 155.171875 C 36.878906 156.035156 29.394531 157.761719 23.363281 160.28125 C 16.238281 163.222656 11.109375 167.179688 7.726562 171.675781 L 7.527344 171.519531 C 7.316406 171.359375 7.082031 171.25 6.824219 171.1875 C 6.566406 171.125 6.304688 171.117188 6.046875 171.164062 C 5.785156 171.210938 5.542969 171.308594 5.324219 171.453125 C 5.101562 171.601562 4.917969 171.789062 4.777344 172.011719 C 2.613281 175.34375 1.242188 178.980469 0.664062 182.914062 C 0.0195312 187.671875 0.453125 192.335938 1.964844 196.894531 C 6.183594 210.082031 22.71875 215.714844 40.933594 217.855469 C 45.515625 218.398438 50.199219 218.714844 54.804688 218.898438 L 54.804688 237.304688 C 54.804688 239.523438 55.234375 241.652344 56.085938 243.703125 C 56.9375 245.75 58.148438 247.554688 59.71875 249.121094 C 61.285156 250.695312 63.09375 251.90625 65.144531 252.761719 C 67.195312 253.613281 69.332031 254.039062 71.554688 254.039062 L 257.515625 254.039062 C 258.0625 254.035156 258.609375 254.007812 259.15625 253.953125 C 259.699219 253.898438 260.242188 253.816406 260.78125 253.707031 C 261.316406 253.601562 261.847656 253.464844 262.371094 253.308594 C 262.894531 253.148438 263.410156 252.960938 263.917969 252.75 C 264.421875 252.542969 264.917969 252.304688 265.398438 252.046875 C 265.882812 251.789062 266.351562 251.507812 266.808594 251.203125 C 267.261719 250.898438 267.703125 250.570312 268.125 250.222656 C 268.550781 249.875 268.953125 249.507812 269.34375 249.121094 C 269.730469 248.734375 270.097656 248.328125 270.445312 247.90625 C 270.792969 247.480469 271.117188 247.042969 271.421875 246.585938 C 271.726562 246.132812 272.007812 245.660156 272.269531 245.179688 C 272.527344 244.695312 272.761719 244.203125 272.972656 243.695312 C 273.183594 243.191406 273.367188 242.675781 273.527344 242.152344 C 273.6875 241.625 273.820312 241.097656 273.929688 240.558594 C 274.035156 240.023438 274.117188 239.480469 274.171875 238.933594 C 274.226562 238.390625 274.257812 237.84375 274.257812 237.296875 L 274.257812 167.085938 C 275.480469 167.074219 276.652344 166.832031 277.777344 166.363281 C 278.902344 165.890625 279.898438 165.222656 280.761719 164.359375 C 281.570312 163.554688 282.207031 162.632812 282.675781 161.589844 C 283.144531 160.550781 283.414062 159.460938 283.476562 158.320312 C 289.671875 156.011719 298.71875 154.09375 308.613281 152 C 313.027344 151.066406 317.601562 150.101562 322.136719 149.058594 L 322.207031 149.367188 C 322.261719 149.617188 322.367188 149.84375 322.511719 150.046875 C 322.660156 150.253906 322.84375 150.425781 323.058594 150.558594 C 323.273438 150.691406 323.503906 150.78125 323.753906 150.824219 C 324.003906 150.863281 324.253906 150.859375 324.5 150.800781 C 347.402344 145.382812 369.9375 137.484375 374.027344 120.136719 C 378.0625 103 362.789062 77.691406 308.8125 38.300781 Z M 54.804688 209.945312 C 50.492188 209.773438 46.179688 209.46875 41.953125 208.96875 C 26.847656 207.191406 13.324219 203.105469 10.46875 194.167969 C 9.382812 190.925781 9.066406 187.605469 9.519531 184.214844 C 9.886719 181.683594 10.75 179.332031 12.109375 177.160156 C 12.234375 176.957031 12.316406 176.738281 12.359375 176.503906 C 12.402344 176.269531 12.402344 176.035156 12.355469 175.800781 C 12.3125 175.570312 12.226562 175.351562 12.101562 175.148438 C 11.972656 174.945312 11.816406 174.773438 11.625 174.632812 L 11.296875 174.382812 C 14.210938 170.492188 18.722656 167.058594 25.097656 164.445312 C 30.59375 162.167969 37.457031 160.519531 45.796875 159.71875 C 46.179688 161.523438 47.023438 163.082031 48.324219 164.386719 C 49.1875 165.25 50.179688 165.914062 51.304688 166.386719 C 52.429688 166.859375 53.601562 167.101562 54.820312 167.109375 Z M 54.804688 162.609375 C 53.503906 162.59375 52.390625 162.125 51.472656 161.203125 C 51.140625 160.867188 50.863281 160.492188 50.640625 160.074219 C 50.417969 159.65625 50.261719 159.21875 50.167969 158.753906 C 50.074219 158.289062 50.050781 157.824219 50.09375 157.351562 C 50.136719 156.882812 50.25 156.425781 50.425781 155.988281 C 50.605469 155.550781 50.839844 155.148438 51.136719 154.78125 C 51.433594 154.414062 51.777344 154.09375 52.167969 153.828125 C 52.558594 153.558594 52.976562 153.355469 53.425781 153.210938 C 53.878906 153.066406 54.339844 152.992188 54.8125 152.984375 Z M 156.96875 104.75 C 157.5 103.816406 158.238281 103.097656 159.1875 102.59375 C 160.289062 102.03125 161.460938 101.757812 162.699219 101.78125 L 221.351562 101.78125 C 222.589844 101.761719 223.757812 102.03125 224.859375 102.59375 C 225.808594 103.097656 226.546875 103.816406 227.078125 104.75 L 232.191406 113.761719 L 151.847656 113.761719 Z M 82.679688 107.96875 C 82.683594 107.425781 82.878906 106.964844 83.257812 106.578125 C 83.640625 106.199219 84.101562 106.007812 84.636719 106.007812 L 109.496094 106.007812 C 109.757812 106.007812 110.007812 106.058594 110.246094 106.160156 C 110.484375 106.257812 110.699219 106.398438 110.882812 106.582031 C 111.066406 106.765625 111.207031 106.976562 111.304688 107.21875 C 111.40625 107.457031 111.453125 107.707031 111.453125 107.96875 L 111.453125 113.9375 L 82.679688 113.9375 Z M 269.78125 237.296875 C 269.777344 238.101562 269.699219 238.898438 269.539062 239.683594 C 269.378906 240.472656 269.144531 241.238281 268.835938 241.984375 C 268.527344 242.726562 268.148438 243.429688 267.703125 244.101562 C 267.253906 244.769531 266.746094 245.386719 266.175781 245.957031 C 265.609375 246.523438 264.988281 247.03125 264.320312 247.480469 C 263.652344 247.929688 262.945312 248.304688 262.203125 248.617188 C 261.460938 248.925781 260.695312 249.160156 259.90625 249.316406 C 259.117188 249.476562 258.320312 249.558594 257.515625 249.5625 L 71.554688 249.5625 C 69.933594 249.554688 68.378906 249.238281 66.882812 248.613281 C 65.390625 247.988281 64.070312 247.101562 62.929688 245.957031 C 61.777344 244.808594 60.886719 243.484375 60.261719 241.980469 C 59.636719 240.476562 59.324219 238.914062 59.324219 237.285156 L 59.324219 159.296875 L 121.003906 159.296875 C 120.378906 160.246094 119.785156 161.21875 119.222656 162.207031 C 118.660156 163.195312 118.128906 164.203125 117.632812 165.226562 C 117.136719 166.25 116.675781 167.289062 116.246094 168.34375 C 115.820312 169.398438 115.425781 170.464844 115.070312 171.546875 C 114.710938 172.625 114.386719 173.71875 114.101562 174.816406 C 113.8125 175.917969 113.5625 177.027344 113.347656 178.144531 C 113.132812 179.265625 112.957031 180.386719 112.816406 181.515625 C 112.675781 182.644531 112.570312 183.777344 112.503906 184.914062 C 112.4375 186.050781 112.410156 187.1875 112.417969 188.324219 C 112.425781 189.464844 112.46875 190.601562 112.550781 191.734375 C 112.632812 192.871094 112.753906 194 112.910156 195.128906 C 113.066406 196.253906 113.257812 197.375 113.488281 198.492188 C 113.714844 199.605469 113.980469 200.710938 114.285156 201.808594 C 114.585938 202.90625 114.921875 203.992188 115.296875 205.066406 C 115.667969 206.140625 116.078125 207.203125 116.519531 208.253906 C 116.960938 209.300781 117.4375 210.332031 117.949219 211.351562 C 118.457031 212.367188 119 213.367188 119.574219 214.347656 C 120.152344 215.332031 120.757812 216.292969 121.394531 217.234375 C 122.035156 218.175781 122.703125 219.097656 123.402344 219.996094 C 124.101562 220.894531 124.828125 221.769531 125.582031 222.617188 C 126.339844 223.46875 127.121094 224.292969 127.933594 225.09375 C 128.742188 225.894531 129.578125 226.664062 130.4375 227.410156 C 131.296875 228.15625 132.179688 228.871094 133.089844 229.558594 C 133.996094 230.246094 134.925781 230.902344 135.875 231.527344 C 136.824219 232.152344 137.792969 232.75 138.78125 233.3125 C 139.773438 233.875 140.777344 234.402344 141.800781 234.902344 C 142.824219 235.398438 143.863281 235.859375 144.917969 236.289062 C 145.972656 236.71875 147.039062 237.113281 148.121094 237.472656 C 149.199219 237.832031 150.289062 238.152344 151.390625 238.441406 C 152.492188 238.730469 153.601562 238.980469 154.71875 239.195312 C 155.835938 239.410156 156.957031 239.589844 158.089844 239.730469 C 159.21875 239.875 160.351562 239.976562 161.484375 240.046875 C 162.621094 240.113281 163.757812 240.144531 164.894531 240.136719 C 166.035156 240.128906 167.171875 240.085938 168.304688 240.003906 C 169.441406 239.921875 170.570312 239.804688 171.699219 239.648438 C 172.828125 239.492188 173.949219 239.300781 175.0625 239.074219 C 176.175781 238.84375 177.285156 238.578125 178.378906 238.277344 C 179.476562 237.976562 180.566406 237.640625 181.640625 237.269531 C 182.714844 236.898438 183.777344 236.492188 184.824219 236.046875 C 185.875 235.605469 186.90625 235.132812 187.925781 234.621094 C 188.945312 234.113281 189.941406 233.570312 190.925781 232.996094 C 191.90625 232.421875 192.871094 231.816406 193.8125 231.179688 C 194.753906 230.539062 195.675781 229.871094 196.574219 229.175781 C 197.472656 228.476562 198.347656 227.75 199.199219 226.996094 C 200.050781 226.238281 200.875 225.457031 201.675781 224.648438 C 202.476562 223.839844 203.25 223.003906 203.996094 222.144531 C 204.742188 221.285156 205.457031 220.402344 206.144531 219.496094 C 206.832031 218.589844 207.488281 217.660156 208.117188 216.710938 C 208.742188 215.761719 209.339844 214.792969 209.902344 213.804688 C 210.464844 212.816406 210.996094 211.808594 211.492188 210.785156 C 211.992188 209.761719 212.457031 208.722656 212.886719 207.667969 C 213.316406 206.617188 213.710938 205.550781 214.070312 204.46875 C 214.429688 203.390625 214.753906 202.300781 215.042969 201.199219 C 215.332031 200.097656 215.582031 198.988281 215.800781 197.871094 C 216.015625 196.753906 216.195312 195.632812 216.335938 194.503906 C 216.480469 193.375 216.585938 192.242188 216.652344 191.105469 C 216.722656 189.96875 216.753906 188.832031 216.746094 187.695312 C 216.742188 186.558594 216.699219 185.421875 216.617188 184.285156 C 216.535156 183.152344 216.417969 182.019531 216.265625 180.890625 C 216.109375 179.765625 215.917969 178.644531 215.691406 177.527344 C 215.464844 176.414062 215.199219 175.308594 214.898438 174.210938 C 214.597656 173.113281 214.261719 172.023438 213.890625 170.949219 C 213.519531 169.875 213.113281 168.8125 212.675781 167.761719 C 212.234375 166.714844 211.757812 165.679688 211.25 164.660156 C 211.164062 164.488281 211.058594 164.316406 210.972656 164.144531 C 210.664062 163.550781 210.351562 162.960938 210.023438 162.417969 L 209.535156 161.554688 C 209.195312 160.988281 208.84375 160.425781 208.488281 159.832031 C 208.378906 159.648438 208.273438 159.46875 208.152344 159.289062 L 269.816406 159.289062 Z M 127.023438 159.296875 C 128.222656 157.71875 129.523438 156.226562 130.921875 154.820312 L 131.144531 154.585938 C 132.242188 153.496094 133.386719 152.460938 134.582031 151.480469 C 135.777344 150.503906 137.019531 149.585938 138.304688 148.726562 C 139.589844 147.871094 140.914062 147.078125 142.277344 146.351562 C 143.640625 145.625 145.039062 144.964844 146.464844 144.375 C 147.894531 143.785156 149.347656 143.265625 150.828125 142.820312 C 152.308594 142.371094 153.804688 142 155.320312 141.699219 C 156.835938 141.398438 158.363281 141.171875 159.902344 141.023438 C 161.441406 140.871094 162.980469 140.796875 164.527344 140.796875 C 166.070312 140.800781 167.613281 140.875 169.152344 141.027344 C 170.691406 141.179688 172.214844 141.40625 173.730469 141.710938 C 175.246094 142.011719 176.746094 142.386719 178.222656 142.835938 C 179.703125 143.285156 181.15625 143.808594 182.582031 144.398438 C 184.011719 144.992188 185.40625 145.652344 186.769531 146.378906 C 188.128906 147.109375 189.453125 147.902344 190.738281 148.761719 C 192.023438 149.621094 193.265625 150.539062 194.457031 151.519531 C 195.652344 152.5 196.796875 153.539062 197.890625 154.628906 L 198.113281 154.863281 C 199.511719 156.269531 200.8125 157.761719 202.011719 159.339844 C 202.898438 160.5 203.726562 161.695312 204.503906 162.933594 C 205.277344 164.167969 205.992188 165.4375 206.648438 166.742188 C 207.304688 168.042969 207.902344 169.375 208.433594 170.730469 C 208.96875 172.089844 209.4375 173.46875 209.84375 174.871094 C 210.25 176.273438 210.589844 177.691406 210.863281 179.121094 C 211.140625 180.554688 211.347656 181.996094 211.488281 183.449219 C 211.628906 184.902344 211.699219 186.355469 211.707031 187.816406 C 211.710938 189.273438 211.652344 190.730469 211.519531 192.183594 C 211.390625 193.636719 211.195312 195.082031 210.933594 196.515625 C 210.667969 197.953125 210.339844 199.371094 209.945312 200.777344 C 209.550781 202.179688 209.09375 203.5625 208.570312 204.925781 C 208.046875 206.289062 207.460938 207.621094 206.816406 208.929688 C 206.167969 210.238281 205.460938 211.511719 204.699219 212.753906 C 203.933594 213.996094 203.113281 215.203125 202.234375 216.367188 C 201.359375 217.535156 200.429688 218.65625 199.449219 219.738281 C 198.46875 220.816406 197.441406 221.851562 196.363281 222.835938 C 195.289062 223.820312 194.167969 224.753906 193.007812 225.632812 C 191.84375 226.515625 190.640625 227.339844 189.402344 228.109375 C 188.164062 228.878906 186.890625 229.589844 185.585938 230.242188 C 184.28125 230.894531 182.949219 231.484375 181.589844 232.011719 C 180.230469 232.539062 178.847656 233.003906 177.445312 233.40625 C 176.042969 233.804688 174.621094 234.140625 173.1875 234.410156 C 171.753906 234.675781 170.3125 234.878906 168.859375 235.015625 C 167.40625 235.148438 165.949219 235.214844 164.492188 235.214844 C 163.03125 235.214844 161.578125 235.148438 160.125 235.015625 C 158.671875 234.878906 157.230469 234.675781 155.792969 234.410156 C 154.359375 234.140625 152.941406 233.804688 151.539062 233.40625 C 150.136719 233.003906 148.753906 232.539062 147.394531 232.011719 C 146.035156 231.484375 144.703125 230.894531 143.398438 230.242188 C 142.09375 229.589844 140.820312 228.878906 139.582031 228.109375 C 138.339844 227.339844 137.140625 226.515625 135.976562 225.632812 C 134.816406 224.753906 133.695312 223.820312 132.617188 222.835938 C 131.542969 221.851562 130.515625 220.816406 129.535156 219.738281 C 128.554688 218.65625 127.625 217.535156 126.746094 216.367188 C 125.871094 215.203125 125.050781 213.996094 124.285156 212.753906 C 123.519531 211.511719 122.816406 210.238281 122.167969 208.929688 C 121.523438 207.621094 120.9375 206.289062 120.414062 204.925781 C 119.890625 203.5625 119.433594 202.179688 119.039062 200.777344 C 118.644531 199.371094 118.3125 197.953125 118.050781 196.515625 C 117.789062 195.082031 117.589844 193.636719 117.460938 192.183594 C 117.332031 190.730469 117.269531 189.273438 117.277344 187.816406 C 117.28125 186.355469 117.355469 184.902344 117.496094 183.449219 C 117.636719 181.996094 117.84375 180.554688 118.121094 179.121094 C 118.394531 177.6875 118.734375 176.273438 119.140625 174.871094 C 119.546875 173.46875 120.015625 172.089844 120.546875 170.730469 C 121.082031 169.375 121.675781 168.042969 122.335938 166.742188 C 122.992188 165.4375 123.707031 164.167969 124.480469 162.933594 C 125.257812 161.695312 126.085938 160.5 126.972656 159.339844 Z M 269.78125 154.820312 L 204.789062 154.820312 C 203.71875 153.519531 202.59375 152.277344 201.410156 151.085938 C 200.199219 149.878906 198.933594 148.730469 197.613281 147.648438 C 196.292969 146.566406 194.921875 145.546875 193.5 144.597656 C 192.082031 143.648438 190.617188 142.773438 189.109375 141.96875 C 187.601562 141.164062 186.058594 140.433594 184.480469 139.78125 C 182.902344 139.125 181.296875 138.550781 179.660156 138.054688 C 178.027344 137.558594 176.371094 137.144531 174.695312 136.8125 C 173.019531 136.480469 171.332031 136.226562 169.632812 136.0625 C 167.929688 135.894531 166.226562 135.808594 164.519531 135.808594 C 162.808594 135.808594 161.105469 135.894531 159.40625 136.0625 C 157.703125 136.226562 156.015625 136.480469 154.339844 136.8125 C 152.664062 137.144531 151.007812 137.558594 149.375 138.054688 C 147.738281 138.550781 146.132812 139.125 144.554688 139.78125 C 142.976562 140.433594 141.433594 141.164062 139.925781 141.96875 C 138.417969 142.773438 136.953125 143.648438 135.535156 144.597656 C 134.113281 145.546875 132.742188 146.566406 131.421875 147.648438 C 130.101562 148.730469 128.835938 149.878906 127.628906 151.085938 C 126.4375 152.277344 125.308594 153.527344 124.238281 154.820312 L 59.28125 154.820312 L 59.28125 130.667969 C 59.28125 129.863281 59.363281 129.066406 59.523438 128.277344 C 59.683594 127.488281 59.917969 126.722656 60.226562 125.980469 C 60.535156 125.238281 60.914062 124.53125 61.363281 123.863281 C 61.808594 123.195312 62.320312 122.574219 62.886719 122.007812 C 63.457031 121.4375 64.078125 120.929688 64.746094 120.480469 C 65.414062 120.035156 66.121094 119.65625 66.863281 119.347656 C 67.609375 119.039062 68.375 118.804688 69.164062 118.644531 C 69.953125 118.488281 70.75 118.40625 71.554688 118.402344 L 257.515625 118.402344 C 259.144531 118.40625 260.707031 118.71875 262.210938 119.34375 C 263.710938 119.96875 265.035156 120.855469 266.183594 122.007812 C 267.332031 123.152344 268.21875 124.46875 268.84375 125.964844 C 269.46875 127.457031 269.785156 129.015625 269.789062 130.632812 Z M 277.605469 161.195312 C 276.683594 162.117188 275.570312 162.585938 274.265625 162.601562 L 274.265625 152.972656 C 275.570312 152.996094 276.683594 153.46875 277.605469 154.390625 C 277.828125 154.613281 278.023438 154.855469 278.199219 155.121094 C 278.375 155.382812 278.523438 155.660156 278.640625 155.953125 C 278.761719 156.242188 278.851562 156.542969 278.914062 156.855469 C 278.976562 157.164062 279.007812 157.476562 279.007812 157.792969 C 279.007812 158.105469 278.976562 158.417969 278.914062 158.730469 C 278.851562 159.039062 278.761719 159.339844 278.640625 159.632812 C 278.523438 159.921875 278.375 160.199219 278.199219 160.464844 C 278.023438 160.726562 277.828125 160.96875 277.605469 161.195312 Z M 365.308594 118.066406 C 362.3125 130.746094 342.632812 137.292969 322.472656 142.046875 C 322.230469 142.101562 322.003906 142.207031 321.800781 142.351562 C 321.59375 142.5 321.425781 142.679688 321.292969 142.890625 C 321.160156 143.105469 321.070312 143.335938 321.03125 143.582031 C 320.988281 143.832031 320.996094 144.078125 321.050781 144.324219 L 321.128906 144.660156 C 316.566406 145.703125 312.054688 146.660156 307.699219 147.582031 C 298.003906 149.636719 289.101562 151.515625 282.605469 153.835938 C 282.234375 153.042969 281.757812 152.316406 281.179688 151.65625 C 280.601562 150.996094 279.945312 150.425781 279.207031 149.953125 C 278.46875 149.480469 277.675781 149.117188 276.835938 148.867188 C 275.996094 148.617188 275.136719 148.488281 274.257812 148.480469 L 274.257812 130.679688 C 274.257812 128.457031 273.832031 126.324219 272.980469 124.273438 C 272.128906 122.226562 270.914062 120.417969 269.339844 118.851562 C 267.777344 117.28125 265.96875 116.070312 263.921875 115.21875 C 261.875 114.367188 259.742188 113.9375 257.523438 113.9375 L 237.425781 113.9375 L 230.949219 102.542969 C 230 100.851562 228.664062 99.554688 226.949219 98.652344 C 225.191406 97.730469 223.324219 97.28125 221.339844 97.296875 L 187.203125 97.296875 C 195.199219 77.804688 203.332031 59.527344 213.191406 46.019531 C 231.804688 20.507812 257.601562 11.976562 303.558594 45.511719 C 353.9375 82.273438 368.558594 104.328125 365.308594 118.085938 Z M 365.308594 118.066406 " fill-opacity="1" fill-rule="evenodd"/></g><path fill="#203344" d="M 248.667969 129.023438 C 248.210938 128.5625 247.683594 128.207031 247.085938 127.957031 C 246.488281 127.703125 245.863281 127.578125 245.214844 127.574219 L 221.339844 127.574219 C 220.691406 127.574219 220.070312 127.703125 219.472656 127.953125 C 218.875 128.207031 218.347656 128.5625 217.890625 129.023438 C 217.429688 129.476562 217.074219 130.003906 216.824219 130.601562 C 216.574219 131.199219 216.445312 131.824219 216.441406 132.472656 L 216.441406 143.890625 C 216.445312 144.539062 216.574219 145.164062 216.824219 145.761719 C 217.074219 146.359375 217.429688 146.886719 217.890625 147.34375 C 218.347656 147.800781 218.875 148.160156 219.472656 148.410156 C 220.070312 148.660156 220.691406 148.789062 221.339844 148.789062 L 245.191406 148.789062 C 245.839844 148.785156 246.460938 148.660156 247.058594 148.40625 C 247.65625 148.15625 248.183594 147.800781 248.640625 147.34375 C 249.597656 146.390625 250.078125 145.238281 250.089844 143.890625 L 250.089844 132.496094 C 250.074219 131.152344 249.59375 130 248.640625 129.046875 Z M 245.640625 143.917969 C 245.640625 144.039062 245.601562 144.140625 245.519531 144.226562 C 245.429688 144.316406 245.324219 144.359375 245.199219 144.359375 L 221.339844 144.359375 C 221.21875 144.355469 221.117188 144.3125 221.03125 144.226562 C 220.945312 144.140625 220.902344 144.039062 220.902344 143.917969 L 220.902344 132.496094 C 220.902344 132.375 220.945312 132.265625 221.03125 132.179688 C 221.117188 132.097656 221.222656 132.054688 221.339844 132.058594 L 245.191406 132.058594 C 245.3125 132.054688 245.421875 132.09375 245.507812 132.179688 C 245.59375 132.269531 245.636719 132.375 245.628906 132.496094 Z M 245.640625 143.917969 " fill-opacity="1" fill-rule="evenodd"/><path fill="#203344" d="M 11.253906 53.84375 C 11.386719 53.929688 11.414062 54.042969 11.332031 54.179688 C 10.96875 54.808594 10.203125 56.90625 14.386719 58.234375 C 14.496094 58.269531 14.523438 58.335938 14.472656 58.441406 C 14.222656 58.898438 13.753906 60.339844 17.058594 61.347656 C 17.058594 61.347656 17.058594 61.398438 17.058594 61.398438 C 16.679688 61.632812 14.667969 62.996094 21.5 64.28125 L 21.5 64.359375 C 20.84375 64.695312 17.457031 66.558594 24.167969 67.167969 C 24.167969 67.167969 24.210938 67.222656 24.167969 67.238281 C 23.621094 67.6875 20.636719 70.371094 27.269531 70.75 C 27.316406 70.777344 27.316406 70.804688 27.269531 70.835938 C 26.789062 71.351562 24.597656 73.898438 29.859375 73.671875 C 29.910156 73.671875 29.929688 73.691406 29.910156 73.742188 C 29.773438 74.15625 29.1875 76.476562 33.007812 75.96875 C 33.007812 75.96875 33.058594 76.019531 33.007812 76.027344 C 32.628906 76.492188 30.851562 78.855469 34.730469 78.796875 C 34.785156 79.074219 35.484375 82.503906 36.835938 80.960938 L 36.890625 80.960938 C 36.890625 81.402344 36.734375 83.1875 38.097656 83.03125 C 38.175781 83.34375 38.742188 85.679688 40.804688 86.179688 C 40.867188 86.199219 40.886719 86.238281 40.855469 86.300781 C 39.699219 87.90625 24.46875 108.796875 18.378906 113.660156 C 18.378906 113.660156 16.738281 115.386719 18.800781 115.117188 C 18.722656 115.351562 18.550781 116.324219 19.835938 115.53125 L 19.886719 115.53125 C 20.449219 115.117188 29.167969 108.699219 29.808594 107.976562 C 29.945312 107.820312 44.289062 102.5 45.152344 101.464844 L 45.203125 101.464844 C 62.636719 99.066406 70.734375 87.363281 71.589844 78.511719 C 71.589844 78.511719 78.417969 71.25 79.203125 64.503906 C 79.203125 64.503906 80.25 61.191406 85.449219 59.40625 C 90.652344 57.621094 100.976562 54.9375 101.105469 55.09375 C 101.105469 55.09375 102.457031 54.402344 100.90625 54.335938 C 100.90625 54.335938 90.71875 55.078125 83.464844 57.386719 C 82.273438 57.734375 81.070312 57.769531 79.859375 57.492188 C 76.410156 56.484375 69.15625 54.550781 64.957031 59.027344 C 63.292969 61.015625 61.855469 63.160156 60.644531 65.453125 C 60.382812 66.042969 60.023438 66.5625 59.566406 67.015625 C 58.867188 67.6875 57.839844 68.316406 56.777344 67.652344 C 56.847656 67.394531 29.472656 36.601562 11.925781 38.730469 C 11.925781 38.730469 9.140625 39.757812 13.082031 41.035156 C 13.226562 41.082031 13.304688 41.183594 13.320312 41.332031 C 13.335938 41.480469 13.28125 41.59375 13.152344 41.671875 C 11.953125 42.390625 11.425781 44.3125 16.601562 45.054688 C 16.652344 45.054688 16.664062 45.132812 16.601562 45.148438 C 13.046875 46.011719 19.621094 50.011719 25.175781 53.316406 C 27.21875 54.3125 29.136719 55.515625 30.921875 56.921875 C 30.980469 56.980469 31.046875 57.03125 31.117188 57.078125 L 28.988281 55.75 C 25.003906 53.457031 20.785156 51.730469 16.335938 50.574219 C 15.273438 50.445312 14.09375 50.339844 12.753906 50.265625 C 11.347656 50.222656 9.964844 50.40625 8.613281 50.808594 C 8.347656 51.417969 8.917969 52.324219 11.253906 53.84375 Z M 72.390625 62.125 C 72.414062 61.910156 72.476562 61.707031 72.582031 61.515625 C 72.683594 61.328125 72.824219 61.164062 72.992188 61.03125 C 73.164062 60.898438 73.351562 60.804688 73.5625 60.746094 C 73.769531 60.691406 73.980469 60.675781 74.195312 60.707031 C 74.410156 60.734375 74.609375 60.804688 74.796875 60.917969 C 74.980469 61.027344 75.140625 61.171875 75.265625 61.347656 C 75.394531 61.519531 75.484375 61.714844 75.53125 61.925781 C 75.582031 62.136719 75.585938 62.347656 75.550781 62.558594 C 75.511719 62.773438 75.4375 62.972656 75.316406 63.152344 C 75.199219 63.335938 75.050781 63.488281 74.875 63.609375 C 74.695312 63.730469 74.5 63.8125 74.285156 63.851562 C 74.074219 63.894531 73.863281 63.894531 73.648438 63.847656 C 73.453125 63.816406 73.269531 63.75 73.097656 63.644531 C 72.925781 63.539062 72.785156 63.40625 72.664062 63.246094 C 72.546875 63.082031 72.464844 62.90625 72.417969 62.710938 C 72.371094 62.515625 72.359375 62.320312 72.390625 62.125 Z M 72.390625 62.125 " fill-opacity="1" fill-rule="evenodd"/><path fill="#ffffff" d="M 150.355469 187.492188 C 151.027344 187.492188 151.691406 187.421875 152.347656 187.289062 C 153.003906 187.15625 153.640625 186.960938 154.261719 186.703125 C 154.878906 186.445312 155.46875 186.128906 156.023438 185.753906 C 156.582031 185.378906 157.09375 184.953125 157.566406 184.480469 C 158.039062 184.003906 158.464844 183.484375 158.835938 182.925781 C 159.207031 182.367188 159.519531 181.78125 159.773438 181.160156 C 160.027344 180.539062 160.21875 179.898438 160.351562 179.242188 C 160.480469 178.582031 160.542969 177.917969 160.542969 177.25 C 160.539062 176.578125 160.472656 175.914062 160.339844 175.257812 C 160.207031 174.597656 160.011719 173.960938 159.753906 173.34375 C 159.496094 172.722656 159.183594 172.136719 158.808594 171.578125 C 158.433594 171.019531 158.011719 170.503906 157.535156 170.03125 C 157.0625 169.558594 156.542969 169.136719 155.984375 168.765625 C 155.425781 168.394531 154.839844 168.078125 154.21875 167.824219 C 153.597656 167.566406 152.960938 167.375 152.300781 167.246094 C 151.644531 167.113281 150.980469 167.050781 150.308594 167.050781 C 149.636719 167.050781 148.972656 167.117188 148.316406 167.25 C 147.660156 167.378906 147.019531 167.574219 146.402344 167.832031 C 145.78125 168.089844 145.195312 168.40625 144.636719 168.777344 C 144.078125 169.152344 143.5625 169.574219 143.089844 170.046875 C 142.613281 170.523438 142.191406 171.039062 141.820312 171.597656 C 141.449219 172.15625 141.132812 172.742188 140.875 173.363281 C 140.621094 173.984375 140.425781 174.621094 140.296875 175.277344 C 140.164062 175.9375 140.097656 176.601562 140.097656 177.273438 C 140.101562 177.945312 140.167969 178.609375 140.300781 179.269531 C 140.433594 179.929688 140.628906 180.566406 140.886719 181.1875 C 141.144531 181.808594 141.460938 182.398438 141.835938 182.957031 C 142.207031 183.515625 142.632812 184.03125 143.109375 184.507812 C 143.585938 184.980469 144.105469 185.40625 144.664062 185.777344 C 145.222656 186.148438 145.8125 186.464844 146.4375 186.71875 C 147.058594 186.976562 147.699219 187.167969 148.355469 187.300781 C 149.015625 187.429688 149.683594 187.492188 150.355469 187.492188 Z M 150.355469 187.492188 " fill-opacity="1" fill-rule="evenodd"/><g fill="#203344" fill-opacity="1"><g transform="translate(4.565028, 302.722333)"><g><path d="M 4.078125 0 L 14.328125 0 C 16.609375 0 18.75 -0.390625 20.734375 -1.296875 C 22.734375 -2.140625 24.46875 -3.375 25.96875 -5.015625 C 27.296875 -6.515625 28.34375 -8.25 29.046875 -10.203125 C 29.734375 -12.140625 30.140625 -14.21875 30.140625 -16.40625 C 30.140625 -18.5 29.734375 -20.546875 29.046875 -22.53125 C 28.34375 -24.46875 27.296875 -26.203125 25.96875 -27.703125 C 24.46875 -29.296875 22.734375 -30.53125 20.734375 -31.4375 C 18.75 -32.28125 16.609375 -32.71875 14.328125 -32.71875 L 4.078125 -32.71875 Z M 9.65625 -5.5625 L 9.65625 -27.109375 L 14.328125 -27.109375 C 17.453125 -27.109375 19.9375 -26.0625 21.78125 -23.96875 C 22.671875 -22.984375 23.328125 -21.78125 23.828125 -20.484375 C 24.3125 -19.203125 24.5625 -17.8125 24.5625 -16.40625 C 24.5625 -14.921875 24.3125 -13.53125 23.828125 -12.234375 C 23.328125 -10.890625 22.671875 -9.75 21.78125 -8.75 C 20.84375 -7.703125 19.75 -6.90625 18.453125 -6.359375 C 17.15625 -5.8125 15.8125 -5.5625 14.328125 -5.5625 Z M 9.65625 -5.5625 "/></g></g></g><g fill="#203344" fill-opacity="1"><g transform="translate(50.65869, 302.722333)"><g><path d="M 23.71875 -4.46875 L 25.71875 0 L 31.828125 0 L 17.40625 -32.71875 L 2.234375 0 L 8.40625 0 L 10.5 -4.46875 Z M 21.234375 -10.09375 L 13.078125 -10.09375 L 17.265625 -19.140625 Z M 21.234375 -10.09375 "/></g></g></g><g fill="#203344" fill-opacity="1"><g transform="translate(98.194221, 302.722333)"><g><path d="M 8.15625 -32.71875 L 2.09375 -32.71875 L 16.90625 0.75 L 31.734375 -32.71875 L 25.609375 -32.71875 L 16.90625 -13.078125 Z M 8.15625 -32.71875 "/></g></g></g><g fill="#203344" fill-opacity="1"><g transform="translate(145.630308, 302.722333)"><g><path d="M 4.625 -32.71875 L 4.625 0 L 10.25 0 L 10.25 -32.71875 Z M 4.625 -32.71875 "/></g></g></g><g fill="#203344" fill-opacity="1"><g transform="translate(173.974137, 302.722333)"><g><path d="M 4.078125 0 L 14.328125 0 C 16.609375 0 18.75 -0.390625 20.734375 -1.296875 C 22.734375 -2.140625 24.46875 -3.375 25.96875 -5.015625 C 27.296875 -6.515625 28.34375 -8.25 29.046875 -10.203125 C 29.734375 -12.140625 30.140625 -14.21875 30.140625 -16.40625 C 30.140625 -18.5 29.734375 -20.546875 29.046875 -22.53125 C 28.34375 -24.46875 27.296875 -26.203125 25.96875 -27.703125 C 24.46875 -29.296875 22.734375 -30.53125 20.734375 -31.4375 C 18.75 -32.28125 16.609375 -32.71875 14.328125 -32.71875 L 4.078125 -32.71875 Z M 9.65625 -5.5625 L 9.65625 -27.109375 L 14.328125 -27.109375 C 17.453125 -27.109375 19.9375 -26.0625 21.78125 -23.96875 C 22.671875 -22.984375 23.328125 -21.78125 23.828125 -20.484375 C 24.3125 -19.203125 24.5625 -17.8125 24.5625 -16.40625 C 24.5625 -14.921875 24.3125 -13.53125 23.828125 -12.234375 C 23.328125 -10.890625 22.671875 -9.75 21.78125 -8.75 C 20.84375 -7.703125 19.75 -6.90625 18.453125 -6.359375 C 17.15625 -5.8125 15.8125 -5.5625 14.328125 -5.5625 Z M 9.65625 -5.5625 "/></g></g></g><g fill="#203344" fill-opacity="1"><g transform="translate(220.067804, 302.722333)"><g/></g></g><g fill="#203344" fill-opacity="1"><g transform="translate(248.461346, 302.722333)"><g><path d="M 4.078125 -32.71875 L 4.078125 0 L 24.765625 0 L 24.765625 -5.5625 L 9.703125 -5.5625 L 9.703125 -32.71875 Z M 4.078125 -32.71875 "/></g></g></g><g fill="#203344" fill-opacity="1"><g transform="translate(290.279135, 302.722333)"><g><path d="M 4.078125 -32.71875 L 4.078125 0 L 24.765625 0 L 24.765625 -5.5625 L 9.703125 -5.5625 L 9.703125 -13.578125 L 21.03125 -13.578125 L 21.03125 -19.203125 L 9.703125 -19.203125 L 9.703125 -27.109375 L 24.765625 -27.109375 L 24.765625 -32.71875 Z M 4.078125 -32.71875 "/></g></g></g><g fill="#203344" fill-opacity="1"><g transform="translate(332.5444, 302.722333)"><g><path d="M 4.078125 -32.71875 L 4.078125 0 L 24.765625 0 L 24.765625 -5.5625 L 9.703125 -5.5625 L 9.703125 -13.578125 L 21.03125 -13.578125 L 21.03125 -19.203125 L 9.703125 -19.203125 L 9.703125 -27.109375 L 24.765625 -27.109375 L 24.765625 -32.71875 Z M 4.078125 -32.71875 "/></g></g></g><g fill="#203344" fill-opacity="1"><g transform="translate(14.846184, 332.751983)"><g><path d="M 1.78125 0 L 4.25 0 L 4.234375 -5.5625 L 7.125 -5.5625 C 7.765625 -5.5625 8.375 -5.65625 8.96875 -5.875 C 9.546875 -6.078125 10.078125 -6.390625 10.5625 -6.78125 C 11.5625 -7.703125 12.0625 -8.75 12.0625 -9.96875 C 12.0625 -10.5625 11.9375 -11.125 11.671875 -11.671875 C 11.40625 -12.21875 11.03125 -12.6875 10.5625 -13.125 C 10.078125 -13.53125 9.546875 -13.8125 8.96875 -14.03125 C 8.375 -14.25 7.765625 -14.359375 7.125 -14.359375 L 1.78125 -14.359375 Z M 4.234375 -8.03125 L 4.234375 -11.890625 L 7.125 -11.890625 C 7.828125 -11.890625 8.421875 -11.6875 8.90625 -11.328125 C 9.359375 -10.921875 9.59375 -10.484375 9.59375 -9.96875 C 9.59375 -9.4375 9.375 -9.015625 8.9375 -8.65625 C 8.46875 -8.21875 7.875 -8.03125 7.125 -8.03125 Z M 4.234375 -8.03125 "/></g></g></g><g fill="#203344" fill-opacity="1"><g transform="translate(45.546714, 332.751983)"><g><path d="M 4.25 -5.953125 L 10.25 -5.953125 L 10.25 0 L 12.71875 0 L 12.6875 -14.359375 L 10.25 -14.359375 L 10.25 -8.421875 L 4.25 -8.421875 L 4.25 -14.359375 L 1.8125 -14.359375 L 1.8125 0 L 4.25 0 Z M 4.25 -5.953125 "/></g></g></g><g fill="#203344" fill-opacity="1"><g transform="translate(77.511246, 332.751983)"><g><path d="M 14.53125 -3.515625 C 15.1875 -4.625 15.515625 -5.84375 15.515625 -7.171875 C 15.515625 -8.484375 15.1875 -9.6875 14.53125 -10.8125 C 13.875 -11.953125 13 -12.84375 11.890625 -13.5 C 10.78125 -14.15625 9.546875 -14.484375 8.25 -14.484375 C 6.9375 -14.484375 5.71875 -14.15625 4.609375 -13.5 C 3.484375 -12.84375 2.625 -11.96875 1.96875 -10.84375 C 1.3125 -9.734375 0.984375 -8.5 0.984375 -7.171875 C 0.984375 -5.875 1.3125 -4.640625 1.96875 -3.515625 C 2.625 -2.375 3.484375 -1.5 4.625 -0.84375 C 5.734375 -0.203125 6.9375 0.125 8.25 0.125 C 9.546875 0.125 10.75 -0.171875 11.859375 -0.828125 C 12.984375 -1.484375 13.875 -2.375 14.53125 -3.515625 Z M 12.40625 -9.625 C 12.828125 -8.859375 13.046875 -8.046875 13.046875 -7.171875 C 13.046875 -6.296875 12.828125 -5.46875 12.40625 -4.734375 C 11.96875 -3.984375 11.40625 -3.40625 10.671875 -2.96875 C 9.921875 -2.53125 9.125 -2.3125 8.25 -2.3125 C 7.375 -2.3125 6.5625 -2.53125 5.828125 -2.96875 C 5.078125 -3.40625 4.515625 -3.984375 4.09375 -4.75 C 3.671875 -5.5 3.453125 -6.296875 3.453125 -7.171875 C 3.453125 -8.046875 3.640625 -8.859375 4.078125 -9.59375 C 4.515625 -10.34375 5.109375 -10.953125 5.84375 -11.390625 C 6.5625 -11.828125 7.375 -12.046875 8.25 -12.046875 C 9.09375 -12.046875 9.90625 -11.828125 10.640625 -11.390625 C 11.390625 -10.953125 11.96875 -10.359375 12.40625 -9.625 Z M 12.40625 -9.625 "/></g></g></g><g fill="#203344" fill-opacity="1"><g transform="translate(111.437155, 332.751983)"><g><path d="M 1.0625 -14.359375 L 1.0625 -11.890625 L 5.359375 -11.890625 L 5.359375 0 L 7.8125 0 L 7.8125 -11.890625 L 12.125 -11.890625 L 12.125 -14.359375 Z M 1.0625 -14.359375 "/></g></g></g><g fill="#203344" fill-opacity="1"><g transform="translate(142.072317, 332.751983)"><g><path d="M 14.53125 -3.515625 C 15.1875 -4.625 15.515625 -5.84375 15.515625 -7.171875 C 15.515625 -8.484375 15.1875 -9.6875 14.53125 -10.8125 C 13.875 -11.953125 13 -12.84375 11.890625 -13.5 C 10.78125 -14.15625 9.546875 -14.484375 8.25 -14.484375 C 6.9375 -14.484375 5.71875 -14.15625 4.609375 -13.5 C 3.484375 -12.84375 2.625 -11.96875 1.96875 -10.84375 C 1.3125 -9.734375 0.984375 -8.5 0.984375 -7.171875 C 0.984375 -5.875 1.3125 -4.640625 1.96875 -3.515625 C 2.625 -2.375 3.484375 -1.5 4.625 -0.84375 C 5.734375 -0.203125 6.9375 0.125 8.25 0.125 C 9.546875 0.125 10.75 -0.171875 11.859375 -0.828125 C 12.984375 -1.484375 13.875 -2.375 14.53125 -3.515625 Z M 12.40625 -9.625 C 12.828125 -8.859375 13.046875 -8.046875 13.046875 -7.171875 C 13.046875 -6.296875 12.828125 -5.46875 12.40625 -4.734375 C 11.96875 -3.984375 11.40625 -3.40625 10.671875 -2.96875 C 9.921875 -2.53125 9.125 -2.3125 8.25 -2.3125 C 7.375 -2.3125 6.5625 -2.53125 5.828125 -2.96875 C 5.078125 -3.40625 4.515625 -3.984375 4.09375 -4.75 C 3.671875 -5.5 3.453125 -6.296875 3.453125 -7.171875 C 3.453125 -8.046875 3.640625 -8.859375 4.078125 -9.59375 C 4.515625 -10.34375 5.109375 -10.953125 5.84375 -11.390625 C 6.5625 -11.828125 7.375 -12.046875 8.25 -12.046875 C 9.09375 -12.046875 9.90625 -11.828125 10.640625 -11.390625 C 11.390625 -10.953125 11.96875 -10.359375 12.40625 -9.625 Z M 12.40625 -9.625 "/></g></g></g><g fill="#203344" fill-opacity="1"><g transform="translate(175.998234, 332.751983)"><g><path d="M 13.59375 0 L 13.59375 -7.921875 L 7.71875 -7.921875 L 7.71875 -5.46875 L 11.140625 -5.46875 L 11.140625 -2.4375 L 8.203125 -2.4375 C 7.328125 -2.4375 6.546875 -2.640625 5.828125 -3.078125 C 5.078125 -3.515625 4.515625 -4.09375 4.09375 -4.84375 C 3.671875 -5.5625 3.453125 -6.375 3.453125 -7.234375 C 3.453125 -8.109375 3.640625 -8.90625 4.078125 -9.640625 C 4.5 -10.375 5.078125 -10.96875 5.828125 -11.40625 C 6.546875 -11.828125 7.328125 -12.046875 8.203125 -12.046875 C 8.859375 -12.046875 9.484375 -11.90625 10.09375 -11.640625 C 10.703125 -11.390625 11.234375 -11 11.6875 -10.515625 L 13.5 -12.15625 C 12.84375 -12.890625 12.046875 -13.453125 11.109375 -13.875 C 10.171875 -14.28125 9.203125 -14.5 8.203125 -14.5 C 6.890625 -14.5 5.6875 -14.171875 4.609375 -13.53125 C 3.515625 -12.875 2.640625 -12 1.984375 -10.890625 C 1.328125 -9.765625 1 -8.546875 1 -7.234375 C 1 -5.9375 1.3125 -4.734375 1.96875 -3.625 C 2.625 -2.515625 3.484375 -1.640625 4.609375 -0.984375 C 5.6875 -0.328125 6.890625 0 8.203125 0 Z M 13.59375 0 "/></g></g></g><g fill="#203344" fill-opacity="1"><g transform="translate(208.834502, 332.751983)"><g><path d="M 9.078125 0 L 12.109375 0 L 7.75 -5.796875 C 7.890625 -5.796875 8.140625 -5.828125 8.484375 -5.90625 C 8.828125 -5.984375 9.140625 -6.0625 9.40625 -6.171875 C 10.140625 -6.4375 10.78125 -6.9375 11.296875 -7.640625 C 11.828125 -8.328125 12.078125 -9.09375 12.078125 -9.96875 C 12.078125 -10.53125 11.953125 -11.109375 11.71875 -11.625 C 11.453125 -12.15625 11.109375 -12.625 10.640625 -13.046875 C 10.171875 -13.453125 9.625 -13.78125 9.015625 -14 C 8.390625 -14.21875 7.75 -14.359375 7.046875 -14.359375 L 1.78125 -14.359375 L 1.8125 0 L 4.25 0 L 4.25 -6.328125 Z M 4.25 -11.890625 L 7.046875 -11.890625 C 7.828125 -11.890625 8.4375 -11.6875 8.921875 -11.296875 C 9.375 -10.90625 9.625 -10.46875 9.625 -9.96875 C 9.625 -9.625 9.484375 -9.3125 9.265625 -9.015625 C 9.046875 -8.703125 8.765625 -8.5 8.4375 -8.375 C 7.96875 -8.140625 7.265625 -8.03125 6.390625 -8.03125 L 4.25 -8.03125 Z M 4.25 -11.890625 "/></g></g></g><g fill="#203344" fill-opacity="1"><g transform="translate(239.687594, 332.751983)"><g><path d="M 10.40625 -1.96875 L 11.28125 0 L 13.953125 0 L 7.640625 -14.359375 L 0.984375 0 L 3.6875 0 L 4.609375 -1.96875 Z M 9.3125 -4.421875 L 5.734375 -4.421875 L 7.5625 -8.390625 Z M 9.3125 -4.421875 "/></g></g></g><g fill="#203344" fill-opacity="1"><g transform="translate(272.066193, 332.751983)"><g><path d="M 1.78125 0 L 4.25 0 L 4.234375 -5.5625 L 7.125 -5.5625 C 7.765625 -5.5625 8.375 -5.65625 8.96875 -5.875 C 9.546875 -6.078125 10.078125 -6.390625 10.5625 -6.78125 C 11.5625 -7.703125 12.0625 -8.75 12.0625 -9.96875 C 12.0625 -10.5625 11.9375 -11.125 11.671875 -11.671875 C 11.40625 -12.21875 11.03125 -12.6875 10.5625 -13.125 C 10.078125 -13.53125 9.546875 -13.8125 8.96875 -14.03125 C 8.375 -14.25 7.765625 -14.359375 7.125 -14.359375 L 1.78125 -14.359375 Z M 4.234375 -8.03125 L 4.234375 -11.890625 L 7.125 -11.890625 C 7.828125 -11.890625 8.421875 -11.6875 8.90625 -11.328125 C 9.359375 -10.921875 9.59375 -10.484375 9.59375 -9.96875 C 9.59375 -9.4375 9.375 -9.015625 8.9375 -8.65625 C 8.46875 -8.21875 7.875 -8.03125 7.125 -8.03125 Z M 4.234375 -8.03125 "/></g></g></g><g fill="#203344" fill-opacity="1"><g transform="translate(302.766713, 332.751983)"><g><path d="M 4.25 -5.953125 L 10.25 -5.953125 L 10.25 0 L 12.71875 0 L 12.6875 -14.359375 L 10.25 -14.359375 L 10.25 -8.421875 L 4.25 -8.421875 L 4.25 -14.359375 L 1.8125 -14.359375 L 1.8125 0 L 4.25 0 Z M 4.25 -5.953125 "/></g></g></g><g fill="#203344" fill-opacity="1"><g transform="translate(334.731248, 332.751983)"><g><path d="M 3.859375 -14.359375 L 0.9375 -14.359375 L 6.921875 -4.796875 L 6.921875 0 L 9.359375 0 L 9.359375 -4.796875 L 15.40625 -14.359375 L 12.453125 -14.359375 L 8.140625 -7.390625 Z M 3.859375 -14.359375 "/></g></g></g></svg>